<?xml version="1.0" encoding="UTF-8"?><svg id="a" xmlns="http://www.w3.org/2000/svg" viewBox="0 0 784.68 200.18"><defs><style>.b{fill:#323333;}.c{fill:none;stroke:#00aeef;stroke-miterlimit:10;stroke-width:14px;}.d{fill:#23abe2;}</style></defs><path class="c" d="M56.19,18.27l-1.13,1.47c-1.96,2.55-48.06,62.84-48.06,89.39,0,27.12,22.07,49.18,49.19,49.18,24.9,0,52.51-22.64,49.19-49.18-2.46-19.71-21.32-36.24-42.12-36.77-21.54-.55-38.11,20.67-38.11,37.56,0,19.89,20.94,30.31,37.28,26.51,15.47-3.59,17.64-24.08,17.67-25.68"/><g><path class="d" d="M525.47,38.06c-3.35-1.73-6.48-2.6-9.36-2.6s-5.58,.87-7.72,2.6c-2.14,1.73-3.55,4.22-4.25,7.46l-2.6,12.66h22.54l-9.36,15.95h-15.78l-14.22,72.82c-.81,4.16-1.99,8.15-3.55,11.96-1.56,3.81-3.35,7.37-5.38,10.66-2.02,3.29-4.19,6.33-6.5,9.1-2.31,2.77-4.57,5.14-6.76,7.11l-14.22-12.83c1.16-1.16,2.43-2.75,3.81-4.77,1.39-2.02,2.71-4.19,3.99-6.5,1.27-2.31,2.4-4.74,3.38-7.28,.98-2.54,1.7-5.03,2.17-7.46l14.56-72.82h-8.67l3.47-15.95h8.15c.11-1.85,.32-3.84,.61-5.98,.29-2.14,.66-4.19,1.13-6.16,1.96-9.59,5.98-16.59,12.05-20.98,6.07-4.39,13.67-6.59,22.8-6.59,3.81,0,7.48,.52,11.01,1.56,3.52,1.04,6.44,2.37,8.76,3.99l-10.06,14.04Z"/><path class="d" d="M561.18,17.6c.11,.69,.2,1.62,.26,2.77,.06,1.16,.09,2.49,.09,3.99,0,2.89-.15,6.16-.43,9.8-.29,3.64-.84,7.31-1.65,11.01l-14.04,65.72c-1.16,5.2-1.94,9.05-2.34,11.53-.41,2.49-.61,4.36-.61,5.64,0,3.35,1.5,5.03,4.51,5.03,1.15,0,2.02-.11,2.6-.35l1.04,13.87c-4.28,1.62-9.08,2.43-14.39,2.43-6.24,0-10.87-1.5-13.87-4.51-3.01-3-4.51-6.82-4.51-11.44,0-1.62,.26-3.9,.78-6.85,.52-2.95,1.13-6.04,1.82-9.28l14.04-66.24c.92-4.04,1.62-7.66,2.08-10.84,.46-3.18,.69-6.04,.69-8.58s-.23-4.51-.69-6.24l24.62-7.46Z"/><path class="d" d="M648.57,86.78c0,7.86-1.04,15.49-3.12,22.89-2.08,7.4-5.26,14.02-9.54,19.85-4.28,5.84-9.68,10.52-16.21,14.04-6.53,3.52-14.19,5.29-22.97,5.29-10.17,0-17.98-2.69-23.41-8.06-5.43-5.38-8.15-13.15-8.15-23.32,0-8.32,1.24-16.18,3.73-23.58,2.48-7.4,5.95-13.87,10.4-19.42,4.45-5.55,9.82-9.94,16.12-13.18,6.3-3.23,13.26-4.85,20.89-4.85,10.06,0,17.95,2.6,23.67,7.8,5.72,5.2,8.58,12.72,8.58,22.54Zm-24.97,0c0-5.2-.93-8.7-2.77-10.49-1.85-1.79-4.51-2.69-7.98-2.69-3.93,0-7.34,1.76-10.23,5.29-2.89,3.53-5.29,7.75-7.2,12.66-1.91,4.91-3.32,10-4.25,15.26-.93,5.26-1.39,9.57-1.39,12.92,0,4.28,.98,7.4,2.95,9.36,1.96,1.97,4.62,2.95,7.98,2.95,3.7,0,6.99-1.53,9.88-4.59,2.89-3.06,5.29-6.91,7.2-11.53,1.91-4.62,3.35-9.54,4.33-14.74,.98-5.2,1.47-10,1.47-14.39Z"/><path class="d" d="M740.47,146.95h-21.33l-1.56-30.52c-.23-3.58-.38-7.31-.43-11.18-.06-3.87-.03-7.31,.09-10.32,.11-2.08,.17-3.64,.17-4.68s.11-2.43,.35-4.16c-.35,.93-.64,1.76-.87,2.51-.23,.75-.52,1.5-.87,2.25-.35,.75-.72,1.65-1.13,2.69-.41,1.04-.95,2.37-1.65,3.99-.81,1.97-1.85,4.28-3.12,6.94-1.27,2.66-2.57,5.46-3.9,8.41-1.33,2.95-2.66,5.81-3.99,8.58-1.33,2.77-2.46,5.2-3.38,7.28l-8.32,18.21h-21.67l-5.72-87.22,23.23-2.6v34.16c0,2.54-.06,5.32-.17,8.32-.12,3.01-.2,5.87-.26,8.58-.06,2.72-.15,5.06-.26,7.02-.12,1.73-.17,2.77-.17,3.12,.11-.46,.52-1.56,1.21-3.29,.81-1.96,1.79-4.36,2.95-7.2,1.15-2.83,2.48-5.98,3.99-9.45,1.5-3.47,3.12-6.94,4.86-10.4l14.74-29.82h21.85l.87,29.3c.11,3.7,.17,7.28,.17,10.75v9.36c0,2.77-.06,5.17-.17,7.2-.12,2.02-.17,3.38-.17,4.07,.35-.92,.89-2.43,1.65-4.51,.75-2.08,1.62-4.48,2.6-7.2,.98-2.71,2.05-5.58,3.21-8.58,1.15-3,2.37-5.9,3.64-8.67l13.52-31.73h24.28l-44.21,88.78Z"/></g><g><path class="b" d="M163.67,109.84v.69c0,6.94,1.62,12.25,4.85,15.95,3.23,3.7,7.86,5.55,13.87,5.55,7.86,0,15.37-2.95,22.54-8.84l9.02,13.87c-10.06,8.21-21.21,12.31-33.46,12.31-6.36,0-12.14-1.1-17.34-3.29-5.2-2.19-9.62-5.29-13.26-9.28-3.64-3.99-6.45-8.81-8.41-14.48-1.97-5.66-2.95-11.96-2.95-18.9,0-7.98,.87-14.74,2.6-20.29,1.73-5.55,4.57-10.52,8.5-14.91,3.7-4.04,7.8-7.05,12.31-9.02,4.51-1.96,9.71-2.95,15.6-2.95,5.2,0,10.06,.81,14.56,2.43,4.51,1.62,8.21,3.93,11.1,6.94,4.04,4.16,7.02,9.34,8.93,15.52,1.91,6.19,2.86,13.96,2.86,23.32v5.38h-51.32Zm27.22-18.03c0-3.35-.2-6.01-.61-7.98-.41-1.96-1.13-3.76-2.17-5.38-2.31-3.47-5.72-5.2-10.23-5.2s-7.8,1.65-10.23,4.94c-2.43,3.29-3.64,8.06-3.64,14.3v.35h26.88v-1.04Z"/><path class="b" d="M233.2,146.95V46.9c0-3.93-.09-7.6-.26-11.01-.17-3.41-.61-7.43-1.3-12.05l23.41-5.72c.58,3.35,.95,7.52,1.13,12.48,.17,4.97,.26,10.4,.26,16.3v100.05h-23.23Zm53.58,0l-29.82-50.28,22.71-38.49h27.92l-28.26,37.11,34.85,51.67h-27.4Z"/><path class="b" d="M388.9,118.86c0,4.62-.93,8.82-2.77,12.57-1.85,3.76-4.42,7-7.72,9.71-3.29,2.72-7.28,4.83-11.96,6.33s-9.86,2.25-15.52,2.25c-10.87,0-22.83-3.41-35.89-10.23l8.32-16.99c1.73,1.04,3.79,2.17,6.16,3.38,2.37,1.21,4.85,2.31,7.46,3.29,2.6,.98,5.26,1.79,7.98,2.43,2.71,.64,5.35,.95,7.89,.95,3.35,0,6.16-.95,8.41-2.86,2.25-1.91,3.38-4.31,3.38-7.2s-1.1-5.35-3.29-7.02c-2.2-1.67-5.67-2.97-10.4-3.9l-10.4-1.91c-3.01-.58-6.07-1.73-9.19-3.47s-5.49-3.58-7.11-5.55c-1.62-1.96-2.86-4.39-3.73-7.28-.87-2.89-1.3-5.78-1.3-8.67,0-4.27,.81-8.21,2.43-11.79,1.62-3.58,3.93-6.65,6.94-9.19,3-2.54,6.62-4.51,10.84-5.9,4.22-1.39,8.93-2.08,14.13-2.08,7.17,0,13.23,.9,18.21,2.69,4.97,1.79,9.48,3.67,13.52,5.64l-7.63,15.6c-4.39-2.31-8.3-3.96-11.7-4.94-3.41-.98-6.79-1.47-10.14-1.47s-6.07,.78-8.15,2.34-3.12,3.67-3.12,6.33c0,2.31,.84,4.13,2.51,5.46,1.67,1.33,4.54,2.51,8.58,3.55l10.75,2.77c2.77,.69,5.09,1.42,6.94,2.17,1.85,.75,3.44,1.56,4.77,2.43,1.33,.87,2.45,1.73,3.38,2.6,.92,.87,1.79,1.82,2.6,2.86,3.23,4.05,4.85,9.08,4.85,15.08Z"/><path class="b" d="M432.25,33.73c0,4.05-1.39,7.46-4.16,10.23-2.77,2.77-6.19,4.16-10.23,4.16s-7.28-1.39-10.06-4.16c-2.77-2.77-4.16-6.18-4.16-10.23s1.41-7.46,4.25-10.23c2.83-2.77,6.27-4.16,10.32-4.16s7.25,1.39,9.97,4.16c2.71,2.77,4.07,6.19,4.07,10.23Zm-26.01,113.22V59.73l23.23-3.64v90.86h-23.23Z"/></g><path class="b" d="M370.93,167.8c-8.49,.89-16.51,2.25-24.54,2.22-1.93,0-3.85-4.61-6.7-8.3,11.04-2.55,19.58-4.53,28.6-6.61,.96,4.6,1.71,8.22,2.64,12.7Z"/></svg>